<?xml version="1.0" standalone="no"?>
<!DOCTYPE svg PUBLIC "-//W3C//DTD SVG 20010904//EN"
 "http://www.w3.org/TR/2001/REC-SVG-20010904/DTD/svg10.dtd">
<svg version="1.0" xmlns="http://www.w3.org/2000/svg"
 width="275.000000pt" height="183.000000pt" viewBox="0 0 275.000000 183.000000"
 preserveAspectRatio="xMidYMid meet">

<g transform="translate(0.000000,183.000000) scale(0.100000,-0.100000)"
fill="#000000" stroke="none">
<path d="M0 1725 c0 -92 2 -105 17 -105 15 0 15 -2 -2 -14 -18 -13 -17 -14 14
-21 23 -5 36 -3 41 5 9 14 1 50 -10 50 -17 0 -20 33 -3 45 22 16 43 8 43 -16
0 -13 7 -19 24 -19 13 0 29 -7 36 -16 8 -8 9 -14 4 -12 -5 2 -10 -1 -12 -7 -2
-5 4 -11 12 -13 11 -2 16 4 16 17 0 27 15 27 33 0 9 -13 17 -16 22 -10 13 22
24 10 19 -19 -5 -23 -3 -30 9 -30 18 0 33 33 17 38 -12 4 18 31 35 32 6 0 4
-4 -4 -9 -7 -5 -10 -14 -7 -20 13 -21 23 -11 24 24 1 20 4 41 8 46 9 16 -36
59 -62 59 -12 0 -27 6 -33 14 -7 8 -27 17 -45 20 -18 3 -45 20 -61 36 -29 30
-55 39 -55 19 0 -5 4 -7 10 -4 5 3 21 -5 35 -19 26 -26 32 -46 15 -46 -7 0 -7
-6 0 -20 6 -11 18 -20 26 -20 8 0 13 -4 10 -9 -3 -5 -20 -5 -38 -1 -59 14 -65
19 -60 49 3 22 -1 32 -18 41 -20 11 -20 13 -5 24 14 10 11 12 -19 14 l-36 3 0
-106z m240 -79 c0 -5 -8 -2 -17 6 -10 9 -25 13 -33 11 -13 -4 -13 -3 -1 5 15
11 51 -5 51 -22z m60 -1 c0 -1 -6 -7 -13 -13 -10 -8 -13 -6 -13 7 0 11 6 17
13 14 7 -3 13 -6 13 -8z"/>
<path d="M2430 1825 c0 -2 7 -19 16 -38 16 -33 17 -33 127 -50 62 -9 127 -20
145 -23 l32 -6 0 61 0 61 -160 0 c-88 0 -160 -2 -160 -5z"/>
<path d="M1625 1667 c-11 -7 -22 -15 -25 -18 -3 -3 -50 -38 -105 -79 -55 -40
-124 -91 -152 -112 -29 -21 -59 -41 -67 -44 -15 -6 -31 -35 -18 -33 4 1 18 1
31 0 18 -1 22 -5 16 -18 -5 -14 -4 -15 6 -6 8 8 17 9 24 3 8 -6 18 -5 31 5 16
13 16 14 2 9 -10 -3 -18 -2 -18 2 1 11 76 64 91 64 5 0 9 7 7 16 -2 10 3 19
11 22 9 3 11 0 6 -9 -5 -8 -4 -11 1 -6 5 5 9 14 9 20 0 5 6 12 14 15 9 3 11 0
6 -8 -6 -9 -3 -9 14 -1 25 14 28 23 4 14 -12 -5 -14 -3 -8 8 7 10 1 9 -18 -3
-15 -10 -38 -25 -52 -34 -41 -27 -28 -7 17 26 22 16 36 30 30 30 -6 0 -14 -4
-17 -10 -3 -5 -11 -10 -18 -10 -7 0 -5 7 5 16 15 15 20 15 61 -2 38 -15 43
-21 34 -33 -10 -12 -9 -12 11 -2 20 11 21 14 7 27 -17 18 -20 34 -4 34 5 0 8
-4 5 -9 -3 -5 2 -12 11 -15 10 -4 14 -4 10 0 -4 4 -2 13 5 21 9 11 7 12 -8 7
-14 -4 -13 -1 6 15 30 25 48 27 29 4 -10 -12 -4 -10 18 5 17 12 36 22 41 22 5
0 9 7 8 16 0 9 5 19 13 22 9 3 11 0 6 -8 -5 -9 -4 -11 4 -6 6 4 18 2 26 -4 8
-7 15 -9 15 -4 0 10 -82 64 -96 63 -5 0 -18 -6 -29 -12z m31 -13 c-5 -14 -4
-15 8 -5 8 7 17 8 20 3 8 -13 -19 -23 -39 -16 -18 7 -19 21 -2 27 19 8 20 8
13 -9z m-36 -23 c0 -5 -8 -12 -17 -16 -10 -3 -32 -18 -48 -33 -35 -30 -28 -28
31 11 38 26 83 29 68 5 -3 -5 -13 -7 -22 -3 -9 3 -33 -7 -59 -25 -30 -22 -47
-29 -59 -22 -12 7 -5 16 38 50 55 42 68 49 68 33z m-200 -141 c-14 -10 -27
-17 -29 -14 -6 5 31 33 44 33 6 1 -1 -8 -15 -19z m-32 -44 c23 -12 23 -12 -18
-40 -23 -15 -39 -22 -35 -15 6 9 3 10 -9 6 -11 -5 -15 -3 -10 5 5 8 1 9 -12 5
-11 -4 -4 6 16 23 39 34 37 34 68 16z"/>
<path d="M1343 1433 c-10 -10 -14 -15 -9 -10 18 13 29 7 15 -10 -13 -15 -12
-15 8 -5 27 15 41 34 17 25 -12 -4 -15 -3 -10 5 10 17 1 15 -21 -5z"/>
<path d="M191 1603 c-1 -13 4 -23 11 -23 6 0 4 -8 -6 -19 -15 -17 -15 -19 -1
-25 9 -3 13 -2 10 4 -3 6 1 10 9 10 9 0 16 7 16 15 0 8 -5 15 -10 15 -6 0 -15
10 -20 23 l-9 22 0 -22z"/>
<path d="M341 1592 c7 -22 66 -55 75 -41 4 8 3 9 -4 5 -7 -4 -12 -2 -12 5 0 7
-3 9 -7 6 -3 -4 -18 3 -31 15 -14 13 -23 17 -21 10z"/>
<path d="M1770 1595 c0 -5 56 -35 66 -35 4 0 -5 9 -19 20 -23 19 -47 26 -47
15z"/>
<path d="M1757 1568 c-3 -7 -17 -39 -31 -71 -24 -53 -24 -57 -7 -47 36 19 37
10 1 -11 l-34 -21 34 -19 c42 -22 57 -23 63 -6 2 6 2 1 0 -12 -3 -18 -1 -22
12 -17 9 3 19 6 21 6 2 0 4 14 4 31 0 26 2 30 15 19 16 -13 35 -6 35 14 0 15
28 41 36 34 11 -11 -44 -114 -66 -124 l-23 -10 28 -18 c27 -18 28 -18 21 -1
-4 10 -3 21 2 24 7 5 72 137 72 147 0 2 -8 4 -19 4 -10 0 -30 11 -44 24 -14
13 -28 21 -31 19 -3 -3 -21 6 -40 21 -40 30 -42 30 -49 14z"/>
<path d="M1580 1459 c-285 -181 -330 -211 -324 -221 4 -7 2 -8 -4 -4 -7 4 -20
3 -29 -3 -16 -8 -15 -11 12 -21 16 -6 38 -9 50 -6 11 3 100 52 198 110 176
102 179 104 203 156 14 29 23 56 22 60 -2 4 -59 -28 -128 -71z"/>
<path d="M2159 1529 c-8 -5 -23 -6 -34 -3 -14 4 -16 2 -7 -4 9 -6 6 -12 -13
-20 -15 -7 -31 -9 -37 -6 -6 4 -8 2 -4 -4 3 -5 0 -13 -6 -15 -10 -4 -9 -8 2
-16 23 -16 34 -13 19 5 -12 15 -11 16 9 10 16 -5 22 -4 20 6 -2 7 4 13 12 13
8 0 23 8 33 18 10 10 22 16 25 12 4 -3 1 -10 -7 -14 -7 -5 -13 -11 -13 -14 0
-19 -12 -47 -20 -47 -5 0 -6 -5 -2 -12 5 -8 2 -9 -9 -5 -10 3 -17 4 -17 1 0
-10 24 -29 110 -88 64 -45 93 -58 118 -58 29 1 32 -1 27 -18 -4 -12 -1 -22 7
-25 14 -5 201 -23 205 -20 5 3 -372 302 -388 307 -9 4 -22 2 -30 -3z m345
-264 c36 -24 33 -29 -5 -9 -25 12 -37 14 -55 5 -16 -7 -24 -7 -24 0 0 6 -7 6
-21 -1 -26 -14 -36 -6 -19 15 17 20 87 14 124 -10z"/>
<path d="M1967 1449 c17 -17 0 -44 -37 -59 -28 -12 -30 -16 -30 -64 0 -50 2
-53 35 -69 44 -21 60 -22 23 -2 l-27 15 23 51 c13 27 25 51 27 53 2 1 15 -9
29 -22 23 -23 24 -24 3 -13 -26 13 -28 7 -12 -37 7 -22 7 -36 0 -51 -10 -18
-6 -23 40 -46 28 -15 48 -22 44 -16 -8 14 5 14 25 1 13 -9 13 -10 0 -10 -11
-1 -10 -4 4 -15 11 -8 25 -15 30 -15 6 0 5 4 -2 9 -10 6 -11 13 -1 34 11 25
13 26 30 11 14 -13 16 -21 8 -36 -6 -10 -8 -24 -6 -31 3 -7 8 0 12 16 4 15 11
27 15 27 4 0 11 12 14 26 l7 27 15 -22 c15 -20 11 -66 -5 -57 -9 6 -7 -42 3
-51 4 -5 7 -3 6 2 -4 20 0 35 10 35 6 0 8 -11 4 -24 -5 -22 0 -27 38 -45 79
-35 168 -53 328 -66 41 -3 87 -8 102 -11 l28 -6 -1 71 c-1 39 -5 71 -10 71 -5
0 -9 -11 -9 -25 0 -32 -26 -95 -39 -95 -6 0 -5 13 3 33 8 17 17 47 21 65 7 32
6 32 -32 31 -21 -1 -30 -3 -20 -6 10 -3 16 -11 13 -18 -2 -7 -10 -31 -16 -53
-12 -39 -13 -39 -40 -25 -27 13 -28 15 -13 43 8 17 19 30 24 30 6 0 7 -4 4
-10 -3 -5 -2 -10 3 -10 6 0 12 7 16 15 5 13 -5 20 -26 16 -5 0 -8 6 -8 14 0 8
-8 15 -17 15 -12 0 -14 -3 -6 -8 19 -12 -2 -35 -25 -28 -17 6 -20 3 -17 -13 2
-12 -1 -21 -7 -21 -6 0 -9 -2 -6 -5 3 -3 13 -2 22 1 14 5 15 9 4 15 -10 7 -9
9 5 9 9 0 17 -7 17 -15 0 -8 -5 -15 -11 -15 -5 0 -7 -4 -4 -10 9 -14 -8 -12
-30 4 -14 10 -16 18 -9 27 17 24 17 69 0 69 -19 0 -21 -16 -3 -23 10 -4 10 -6
0 -6 -7 -1 -13 -9 -13 -20 0 -24 -29 -81 -31 -61 -1 8 -1 18 0 22 0 4 -7 4
-16 1 -13 -5 -15 -3 -8 13 5 10 9 31 9 46 1 14 4 24 8 22 4 -2 9 0 13 6 3 5
-2 10 -12 10 -34 0 -142 58 -300 163 -87 57 -174 109 -193 116 -26 9 -32 9
-23 0z m-43 -134 c-4 -8 -8 -15 -10 -15 -2 0 -4 7 -4 15 0 8 4 15 10 15 5 0 7
-7 4 -15z m117 -65 c14 -10 -7 -31 -24 -24 -13 5 -14 10 -4 31 7 16 13 20 16
12 2 -8 8 -16 12 -19z m31 -2 c-8 -8 -9 -4 -5 13 4 13 8 18 11 10 2 -7 -1 -18
-6 -23z m80 10 c-7 -7 -12 -8 -12 -2 0 14 12 26 19 19 2 -3 -1 -11 -7 -17z
m38 -3 c0 -8 -7 -15 -15 -15 -9 0 -12 6 -9 15 4 8 10 15 15 15 5 0 9 -7 9 -15z
m-80 -10 c0 -8 5 -15 12 -15 6 0 9 -2 6 -5 -9 -10 -35 5 -35 20 0 8 4 15 9 15
4 0 8 -7 8 -15z m100 -19 c0 -3 -4 -8 -10 -11 -5 -3 -10 -1 -10 4 0 6 5 11 10
11 6 0 10 -2 10 -4z m70 -57 c0 -11 4 -17 10 -14 6 3 7 -1 4 -10 -4 -9 -12
-14 -18 -12 -14 5 -21 57 -7 57 6 0 11 -9 11 -21z m70 -4 c9 -11 9 -15 1 -15
-7 0 -9 -5 -5 -12 5 -7 3 -8 -6 -3 -7 4 -16 2 -21 -6 -14 -22 -10 -33 7 -19
13 12 14 10 3 -13 -8 -19 -16 -24 -30 -19 -16 7 -23 30 -6 25 4 -2 7 6 7 17 0
11 5 20 10 20 6 0 10 9 10 20 0 24 13 26 30 5z m40 -19 c0 -7 -6 -13 -14 -13
-8 0 -11 8 -8 19 5 19 22 15 22 -6z m70 20 c0 -2 -7 -6 -15 -10 -8 -3 -15 -1
-15 4 0 6 7 10 15 10 8 0 15 -2 15 -4z m-19 -63 c11 -16 11 -16 -1 -5 -12 10
-18 9 -33 -10 l-18 -23 12 28 c14 32 22 33 40 10z m-71 -22 c0 -10 -30 -24
-37 -17 -3 3 -2 9 2 15 8 13 35 15 35 2z m54 -27 c3 -8 2 -12 -4 -9 -6 3 -10
10 -10 16 0 14 7 11 14 -7z"/>
<path d="M1439 1419 l-24 -20 28 17 c15 9 27 18 27 20 0 8 -8 4 -31 -17z"/>
<path d="M1 1263 c1 -82 4 -135 6 -120 3 21 9 27 20 23 8 -3 17 -6 19 -6 3 0
2 -5 -1 -10 -4 -6 -11 -8 -16 -5 -5 3 -6 -1 -3 -9 4 -9 -1 -18 -10 -22 -18 -7
-22 -49 -6 -59 6 -3 10 -1 10 5 0 6 4 8 10 5 5 -3 23 1 39 10 24 12 29 21 27
42 -1 16 1 38 6 51 5 16 4 24 -6 28 -8 3 -13 11 -10 18 3 7 -6 23 -18 37 -13
14 -22 36 -22 49 1 14 -2 30 -6 35 -9 11 -10 15 -10 50 0 16 -6 25 -15 25 -13
0 -15 -22 -14 -147z"/>
<path d="M1487 1288 c-134 -77 -173 -104 -161 -111 8 -5 23 -5 32 -1 9 4 21 6
26 5 5 -1 20 8 34 21 14 13 22 17 17 10 -6 -11 -3 -12 14 -3 11 7 21 16 21 22
0 6 5 7 11 3 7 -4 20 4 31 17 11 13 17 18 13 11 -5 -10 -1 -10 19 -1 14 7 23
16 20 20 -3 5 4 9 16 9 12 0 31 10 42 23 11 12 17 16 13 10 -8 -16 -3 -16 30
-1 14 6 25 18 25 25 0 8 5 11 10 8 6 -3 15 -3 21 1 12 7 -25 33 -46 33 -5 1
-90 -45 -188 -101z"/>
<path d="M1206 1359 c-32 -25 -25 -37 28 -49 32 -7 35 -6 26 10 -9 17 -4 30
12 30 5 0 6 -6 2 -12 -4 -7 -3 -9 1 -5 16 14 13 33 -5 33 -10 0 -17 -4 -14 -7
5 -9 -9 -19 -37 -24 -22 -4 -22 16 1 23 8 3 10 0 5 -9 -5 -8 -4 -10 0 -6 8 7
17 37 10 37 -1 0 -14 -10 -29 -21z"/>
<path d="M1759 1326 c10 -12 8 -17 -8 -25 -16 -9 -20 -8 -24 7 -4 14 -5 13 -6
-3 -1 -15 -21 -31 -73 -57 -40 -21 -64 -36 -53 -34 28 4 119 47 123 57 2 5 12
9 22 9 10 0 22 5 25 10 10 16 25 12 25 -7 0 -12 -3 -14 -8 -6 -5 8 -12 8 -25
-2 -14 -10 -15 -14 -5 -18 8 -3 6 -6 -5 -6 -14 -1 -17 -6 -12 -23 5 -21 5 -21
-9 2 -9 14 -15 19 -16 12 0 -7 -4 -10 -10 -7 -5 3 -10 2 -10 -4 0 -6 -7 -7
-17 -4 -11 4 -14 3 -9 -5 5 -8 1 -10 -10 -5 -12 4 -15 3 -10 -5 5 -8 1 -10
-10 -5 -11 4 -15 3 -10 -5 7 -11 -29 -28 -53 -23 -7 1 -10 -2 -7 -7 3 -5 -6
-14 -20 -21 -20 -9 -24 -9 -19 1 4 7 1 6 -7 -3 -18 -21 -76 -51 -87 -44 -5 3
-11 1 -13 -4 -1 -5 -10 -11 -18 -13 -8 -2 -21 -9 -28 -16 -8 -7 -18 -10 -23
-7 -5 4 -9 2 -9 -4 0 -11 -38 -26 -57 -23 -7 2 -13 -3 -13 -10 0 -9 -3 -10 -8
-2 -6 10 -52 30 -52 22 0 -2 -4 -18 -10 -37 -5 -19 -7 -31 -4 -28 3 3 20 1 37
-5 44 -13 59 -16 81 -17 12 -1 16 -6 12 -16 -15 -38 -17 -50 -6 -30 21 34 41
44 73 38 21 -4 28 -3 23 5 -7 12 40 49 50 39 3 -3 -4 -8 -15 -12 -18 -5 -31
-45 -15 -45 16 0 44 23 44 36 0 9 7 14 17 12 10 -2 18 3 18 10 0 17 34 42 54
41 9 0 5 -5 -9 -10 -31 -13 -32 -13 -24 -32 5 -13 10 -14 30 -5 13 6 24 19 24
29 0 12 6 16 20 12 15 -4 20 0 20 15 0 26 49 46 89 37 26 -5 31 -4 31 12 0 12
15 24 44 36 36 15 47 26 60 60 16 43 17 64 3 59 -5 -1 -6 2 -3 7 3 5 -15 25
-41 45 -47 36 -75 48 -54 22z m-129 -211 c0 -2 -10 -9 -22 -15 -22 -11 -22
-10 -4 4 21 17 26 19 26 11z"/>
<path d="M1156 1305 c-9 -26 -7 -32 5 -12 6 10 9 21 6 23 -2 3 -7 -2 -11 -11z"/>
<path d="M1156 1245 c-9 -26 -7 -32 5 -12 6 10 9 21 6 23 -2 3 -7 -2 -11 -11z"/>
<path d="M1897 1218 c-3 -7 -12 -30 -21 -50 -15 -34 -15 -38 -1 -38 9 0 19 8
22 18 8 21 33 41 51 42 14 0 11 -17 -11 -70 -6 -14 -10 -28 -9 -32 1 -5 -2 -8
-8 -8 -5 0 -10 -10 -10 -21 0 -18 -3 -19 -15 -9 -11 9 -22 9 -52 -1 l-38 -13
38 -8 c40 -8 76 3 78 25 1 22 18 -27 18 -55 1 -20 9 -32 31 -43 32 -17 65 -21
40 -5 -27 17 -4 20 33 5 46 -19 61 -19 53 1 -3 9 -9 27 -12 40 -6 23 -4 24 21
18 l28 -7 -6 52 c-4 37 -3 50 5 45 6 -4 8 -3 4 4 -3 6 -23 16 -44 23 -20 6
-39 15 -42 19 -5 8 -135 80 -143 80 -3 0 -7 -6 -10 -12z m123 -75 c0 -7 -9
-22 -20 -33 -11 -11 -16 -20 -11 -20 5 0 1 -18 -10 -40 -10 -21 -19 -45 -20
-52 -2 -22 -17 35 -18 67 0 17 8 49 19 73 18 39 21 42 40 30 11 -7 20 -18 20
-25z m50 -123 c0 -5 -4 -10 -10 -10 -5 0 -10 5 -10 10 0 6 5 10 10 10 6 0 10
-4 10 -10z"/>
<path d="M1521 1185 c-51 -30 -48 -29 -54 -7 -4 13 -5 12 -6 -5 0 -12 -9 -27
-18 -32 -11 -6 -13 -11 -5 -11 8 0 10 -5 6 -12 -4 -8 -3 -10 2 -5 5 5 9 14 9
20 0 7 8 13 19 15 13 3 16 0 11 -10 -4 -7 3 -1 16 14 13 14 34 29 47 33 12 3
22 11 22 16 0 12 1 12 -49 -16z"/>
<path d="M963 1163 c9 -14 47 -24 47 -12 0 5 -4 9 -9 9 -5 0 -17 3 -27 7 -11
4 -15 3 -11 -4z"/>
<path d="M930 1135 c-7 -8 -16 -12 -21 -9 -5 3 -9 0 -9 -5 0 -6 7 -11 15 -11
20 0 65 -22 60 -29 -2 -4 5 -7 15 -7 10 0 17 3 14 7 -2 4 2 10 8 13 7 3 2 3
-12 0 l-25 -7 20 24 c11 13 13 18 5 12 -8 -7 -18 -13 -23 -13 -4 0 -5 6 -1 13
5 9 4 9 -6 0 -18 -17 -44 -5 -29 13 6 8 9 14 6 14 -2 0 -10 -7 -17 -15z"/>
<path d="M1803 1128 c-15 -7 -23 -20 -23 -35 0 -14 4 -21 10 -18 9 6 44 66 38
64 -2 0 -13 -5 -25 -11z"/>
<path d="M2492 1110 c0 -14 2 -19 5 -12 2 6 2 18 0 25 -3 6 -5 1 -5 -13z"/>
<path d="M861 1091 c-11 -7 -9 -11 9 -21 15 -8 19 -15 12 -22 -14 -14 -54 0
-45 15 4 7 -1 6 -11 -2 -16 -14 -15 -15 11 -26 15 -7 33 -10 39 -8 7 2 15 0
18 -6 4 -6 14 -7 23 -4 10 4 14 2 10 -4 -14 -22 23 -6 47 20 14 15 24 27 23
28 -1 0 -11 2 -21 4 -19 4 -60 -18 -51 -26 2 -3 -5 -5 -15 -6 -31 -3 -23 15
15 33 20 9 33 19 31 22 -3 3 -11 0 -18 -6 -15 -12 -70 -4 -62 9 7 11 3 11 -15
0z m99 -51 c0 -5 -4 -10 -10 -10 -5 0 -10 5 -10 10 0 6 5 10 10 10 6 0 10 -4
10 -10z"/>
<path d="M1036 1083 c-4 -9 -1 -21 5 -27 9 -8 10 -8 5 2 -4 7 -1 12 8 12 8 0
16 -8 19 -17 2 -10 4 -3 4 15 0 24 -4 32 -17 32 -10 0 -21 -8 -24 -17z"/>
<path d="M2135 1004 c-22 -46 -44 -84 -50 -84 -5 0 -3 -5 5 -10 21 -14 30 -12
24 4 -7 19 22 28 36 10 10 -11 9 -14 -4 -14 -38 0 -9 -17 87 -53 109 -40 223
-67 272 -66 17 1 22 3 13 6 -10 2 -18 9 -18 15 0 5 7 8 14 5 10 -4 13 -1 9 8
-3 8 -10 12 -17 8 -7 -4 -8 -2 -1 5 12 13 55 5 55 -10 0 -5 -4 -6 -10 -3 -6 4
-7 -2 -1 -17 7 -21 15 -23 77 -25 38 0 61 1 52 4 -10 2 -18 11 -18 20 0 10 6
13 16 9 9 -3 18 -6 20 -6 2 0 4 -8 4 -17 0 -13 2 -15 8 -5 5 7 16 10 25 6 15
-5 17 2 17 58 l0 65 -86 7 c-48 3 -96 9 -108 12 -18 4 -25 -4 -46 -55 -16 -38
-29 -57 -37 -54 -7 3 -20 0 -28 -7 -18 -15 -18 -10 -5 25 8 20 15 25 30 20 16
-5 20 -2 20 14 0 12 4 21 9 21 4 0 6 11 3 25 -2 14 -10 25 -17 25 -7 0 -16
-11 -19 -25 -5 -19 -13 -25 -32 -25 -21 0 -25 -4 -22 -18 3 -11 0 -19 -8 -19
-8 0 -14 5 -14 11 0 6 -6 0 -13 -14 -12 -24 -50 -36 -44 -15 1 6 7 9 14 9 9
-1 9 3 0 17 -11 18 -12 17 -24 -5 -9 -18 -18 -23 -33 -19 -14 4 -19 11 -15 21
4 12 3 12 -9 3 -16 -13 -49 -4 -39 12 3 5 1 7 -5 3 -6 -3 -13 -2 -17 4 -6 9
21 15 51 11 7 -1 14 8 17 19 3 11 1 20 -3 20 -5 0 -5 14 0 30 5 18 5 30 -1 30
-5 0 -9 -4 -9 -10 0 -5 -10 -9 -22 -7 -12 1 -23 -3 -23 -10 0 -15 -15 -30 -15
-14 0 6 9 30 21 52 11 23 18 43 16 45 -2 3 -10 -9 -17 -26 -7 -16 -16 -30 -21
-30 -5 0 -9 -10 -9 -22 -1 -23 -1 -23 -16 -3 -13 16 -15 17 -12 3 2 -9 0 -16
-3 -15 -3 1 -13 -4 -22 -12 -22 -18 -22 0 1 30 18 24 47 98 40 103 -1 2 -21
-34 -43 -80z m125 -38 c0 -3 -4 -8 -10 -11 -5 -3 -10 -1 -10 4 0 6 5 11 10 11
6 0 10 -2 10 -4z m-33 -38 c-3 -8 -6 -5 -6 6 -1 11 2 17 5 13 3 -3 4 -12 1
-19z m-17 -3 c0 -8 -2 -15 -4 -15 -2 0 -6 7 -10 15 -3 8 -1 15 4 15 6 0 10 -7
10 -15z m198 -95 c12 -20 6 -26 -13 -12 -12 9 -18 32 -7 32 4 0 13 -9 20 -20z
m219 -25 c-4 -9 -17 -14 -34 -14 l-28 2 28 4 c16 3 27 11 27 20 0 9 3 14 6 10
4 -3 4 -13 1 -22z"/>
<path d="M1663 1073 c-7 -2 -13 -15 -13 -28 0 -22 2 -23 30 -12 18 7 30 19 30
29 0 18 -20 22 -47 11z"/>
<path d="M1121 1049 c-7 -21 -5 -25 23 -35 26 -9 32 -8 37 5 4 9 2 18 -2 19
-5 2 -7 8 -3 13 3 5 1 9 -5 9 -5 0 -16 3 -25 6 -11 4 -19 -2 -25 -17z"/>
<path d="M2277 1024 c3 -8 8 -13 11 -10 2 3 13 1 23 -5 21 -11 15 -39 -8 -39
-8 0 -11 5 -7 13 5 9 4 9 -6 0 -11 -10 -11 -15 0 -27 7 -9 9 -24 6 -33 -6 -17
-5 -17 8 0 15 20 50 13 42 -9 -3 -7 0 -16 6 -20 7 -4 8 -3 4 4 -3 6 3 16 15
22 16 9 19 17 14 38 -6 23 -5 24 12 11 16 -13 17 -12 5 2 -7 9 -22 19 -33 22
-14 4 -18 2 -11 -6 21 -28 20 -43 -5 -45 -23 -2 -25 1 -19 31 6 30 3 35 -28
50 -30 14 -34 14 -29 1z"/>
<path d="M780 1020 l-25 -6 30 -9 c33 -9 33 -9 58 0 12 5 17 3 15 -6 -2 -7 2
-13 9 -14 6 0 14 -3 18 -7 10 -9 36 2 29 13 -3 5 -10 7 -15 3 -5 -3 -8 0 -7 7
2 8 -9 13 -32 13 -19 1 -39 4 -45 7 -5 3 -21 3 -35 -1z"/>
<path d="M1073 1015 c0 -8 4 -12 9 -9 4 3 8 9 8 15 0 5 -4 9 -8 9 -5 0 -9 -7
-9 -15z"/>
<path d="M1826 1011 c-3 -5 -16 -7 -29 -3 -20 5 -21 4 -7 -14 19 -24 42 -43
54 -44 5 0 6 3 3 7 -4 3 -2 12 4 20 9 10 8 13 -5 13 -21 0 -21 17 2 23 15 4
15 5 0 6 -9 0 -19 -3 -22 -8z m9 -31 c3 -5 1 -10 -4 -10 -6 0 -11 5 -11 10 0
6 2 10 4 10 3 0 8 -4 11 -10z"/>
<path d="M1894 980 c2 -19 7 -33 12 -31 10 3 10 5 -5 41 -9 23 -10 22 -7 -10z"/>
<path d="M1747 993 c-3 -5 -1 -17 4 -28 7 -17 8 -17 8 8 1 27 -4 34 -12 20z"/>
<path d="M835 969 c3 -12 7 -24 11 -28 4 -3 4 2 1 12 -4 11 -3 16 3 12 6 -3
10 -14 11 -23 0 -14 2 -13 9 3 12 27 12 37 1 30 -5 -3 -12 -1 -16 5 -11 18
-24 11 -20 -11z"/>
<path d="M801 956 c-6 -16 -10 -34 -8 -40 3 -6 10 2 16 18 6 16 10 34 8 40 -3
6 -10 -2 -16 -18z"/>
<path d="M1869 973 c-1 -4 -1 -11 0 -15 2 -14 -41 -30 -64 -24 -27 7 -45 -15
-38 -45 3 -11 0 -19 -7 -19 -7 0 -10 7 -6 15 3 9 -3 19 -16 26 -16 8 -19 8
-13 -1 5 -9 1 -10 -14 -5 -12 4 -21 2 -21 -4 0 -6 -3 -10 -7 -10 -5 1 -11 0
-15 -1 -5 -1 -11 -3 -15 -5 -5 -1 -15 -5 -23 -8 -44 -19 -99 -35 -104 -30 -3
3 -11 1 -18 -4 -7 -6 -38 -18 -68 -27 -30 -10 -65 -22 -77 -28 -12 -6 -29 -8
-37 -5 -9 4 -16 2 -16 -4 0 -6 -6 -9 -14 -6 -8 3 -16 2 -18 -4 -2 -5 -18 -10
-36 -12 -30 -2 -46 -22 -19 -25 6 -1 50 -8 97 -16 106 -19 97 -20 103 4 8 29
25 25 19 -5 -3 -20 0 -25 17 -25 15 0 21 6 21 21 0 16 4 19 20 14 15 -5 20 -2
20 14 0 19 35 39 47 27 4 -3 -1 -6 -10 -6 -12 0 -17 -8 -17 -26 0 -22 3 -25
23 -20 12 3 25 6 30 6 4 0 7 9 7 21 0 16 4 19 20 14 16 -5 20 -2 20 14 0 20
43 41 57 27 4 -3 -3 -6 -15 -6 -17 0 -22 -6 -22 -26 0 -22 3 -25 23 -20 12 3
28 6 36 6 9 0 11 7 8 21 -5 18 -2 20 19 15 20 -5 24 -3 24 15 0 12 8 23 20 26
11 3 18 9 15 13 -2 4 8 5 23 2 l27 -6 -25 -6 c-18 -4 -26 -14 -28 -34 -3 -26
-1 -28 20 -23 13 4 29 7 36 7 6 0 12 12 12 26 0 23 3 25 31 19 28 -6 30 -5 27
16 -2 18 3 24 32 32 52 13 54 20 15 57 -27 26 -38 31 -47 22 -9 -9 -9 -15 0
-24 9 -9 12 -8 12 6 0 9 4 15 10 11 17 -10 -1 -33 -25 -31 -13 0 -21 5 -17 10
3 5 -2 7 -10 3 -12 -4 -15 0 -13 19 2 22 -13 48 -16 27z m104 -68 c-3 -9 -8
-14 -10 -11 -3 3 -2 9 2 15 9 16 15 13 8 -4z"/>
<path d="M2406 934 c-9 -20 -15 -39 -12 -42 3 -3 8 3 12 12 3 9 9 14 13 12 3
-2 7 9 8 25 1 16 1 29 -1 29 -1 0 -10 -16 -20 -36z"/>
<path d="M985 940 c11 -5 29 -8 40 -8 16 0 15 2 -5 8 -34 11 -60 11 -35 0z"/>
<path d="M1620 939 c0 -5 5 -7 10 -4 6 3 10 8 10 11 0 2 -4 4 -10 4 -5 0 -10
-5 -10 -11z"/>
<path d="M2030 941 c0 -9 30 -24 36 -18 2 1 -6 8 -16 15 -11 7 -20 8 -20 3z"/>
<path d="M1601 924 c0 -11 3 -14 6 -6 3 7 2 16 -1 19 -3 4 -6 -2 -5 -13z"/>
<path d="M928 908 c6 -6 18 -8 28 -6 14 3 12 5 -9 10 -19 3 -25 2 -19 -4z"/>
<path d="M1117 904 c-3 -4 1 -17 10 -31 18 -28 35 -18 27 15 -6 21 -24 29 -37
16z"/>
<path d="M1210 892 c0 -10 35 -19 78 -20 12 -1 22 3 22 7 0 4 -6 8 -12 8 -7 0
-30 4 -50 8 -24 5 -38 3 -38 -3z"/>
<path d="M1450 888 c-25 -11 -25 -11 -2 -15 12 -3 29 3 38 11 19 19 2 21 -36
4z"/>
<path d="M875 880 c27 -12 43 -12 25 0 -8 5 -22 9 -30 9 -10 0 -8 -3 5 -9z"/>
<path d="M973 841 c-95 -42 -105 -50 -75 -58 15 -4 22 -13 23 -32 l1 -26 7 25
c4 14 11 25 16 25 6 0 15 3 21 7 6 4 25 5 43 3 27 -4 31 -2 22 9 -10 12 -6 14
19 12 29 -2 33 2 33 39 0 44 -2 44 -110 -4z m97 15 c0 -2 -7 -7 -16 -10 -8 -3
-12 -2 -9 4 6 10 25 14 25 6z"/>
<path d="M1373 860 c-13 -5 -23 -17 -23 -27 0 -11 3 -14 8 -7 4 6 21 18 37 27
32 17 15 22 -22 7z"/>
<path d="M828 853 c6 -2 18 -2 25 0 6 3 1 5 -13 5 -14 0 -19 -2 -12 -5z"/>
<path d="M2450 850 c0 -6 7 -10 15 -10 8 0 15 2 15 4 0 2 -7 6 -15 10 -8 3
-15 1 -15 -4z"/>
<path d="M1196 774 c-10 -37 -2 -39 11 -4 6 17 8 30 3 30 -4 0 -11 -12 -14
-26z"/>
<path d="M891 754 c0 -11 3 -14 6 -6 3 7 2 16 -1 19 -3 4 -6 -2 -5 -13z"/>
<path d="M2015 752 c3 -7 5 -16 5 -18 0 -2 5 -4 11 -4 5 0 7 5 3 11 -3 6 0 15
7 20 10 6 7 8 -9 6 -15 -1 -21 -6 -17 -15z"/>
<path d="M520 739 c0 -5 7 -9 15 -9 8 0 17 0 20 0 16 0 2 15 -15 16 -11 1 -20
-3 -20 -7z"/>
<path d="M1865 735 c-22 -8 -101 -26 -176 -41 -75 -16 -136 -33 -136 -39 0 -5
-3 -17 -5 -25 -3 -8 -3 -12 -1 -7 3 4 16 7 30 7 20 0 24 -4 21 -22 -2 -13 -10
-23 -18 -23 -19 0 -25 -29 -11 -52 8 -14 10 -15 11 -3 0 13 2 13 9 1 8 -12 12
-12 26 2 24 25 45 21 45 -7 0 -13 3 -33 6 -43 4 -13 3 -15 -4 -4 -7 9 -12 10
-16 2 -10 -16 -26 -14 -26 4 0 8 -7 15 -15 15 -9 0 -15 -9 -15 -22 0 -14 -3
-18 -8 -12 -4 6 -19 10 -34 8 -18 -2 -28 2 -28 11 0 13 -40 29 -49 19 -3 -3 0
-13 7 -22 7 -9 15 -25 18 -34 5 -14 16 -15 62 -11 32 3 87 14 124 25 37 11 71
17 77 14 5 -3 16 11 24 32 8 20 11 39 6 40 -5 2 -9 11 -9 20 0 12 3 13 11 5 9
-9 17 -6 31 10 10 12 0 -16 -22 -62 -42 -84 -42 -100 -3 -101 7 0 18 -9 25
-20 10 -15 24 -20 55 -20 23 0 45 -4 48 -10 10 -16 55 -12 55 6 0 9 5 12 11 8
7 -4 9 -24 6 -50 -4 -42 4 -57 19 -32 5 7 3 8 -6 3 -9 -5 -11 -4 -6 3 4 7 9
12 11 12 13 0 54 -50 63 -79 15 -41 15 -44 2 -36 -5 3 -10 1 -10 -4 0 -6 12
-11 26 -11 15 0 23 4 19 11 -4 6 -1 9 7 7 7 -1 29 8 47 22 42 29 96 39 259 47
119 5 122 5 122 -16 0 -22 12 -27 85 -35 22 -3 58 -8 80 -12 39 -6 40 -6 17
11 -12 9 -20 21 -17 26 4 5 2 9 -4 9 -5 0 -12 -6 -14 -12 -3 -8 -6 -6 -6 4 -1
11 -6 15 -16 12 -8 -4 -12 -11 -9 -16 4 -6 1 -8 -7 -6 -8 3 -13 11 -12 17 2 6
-2 11 -8 11 -6 0 -8 -7 -5 -16 5 -13 2 -15 -16 -9 -13 4 -31 7 -40 6 -10 0
-18 5 -18 11 0 6 3 8 7 5 3 -4 11 -2 18 3 6 5 46 10 88 11 l77 1 0 63 0 62
-239 -1 c-132 -1 -237 2 -235 5 2 3 -44 32 -101 63 -58 31 -105 62 -105 67 0
6 8 8 18 5 71 -20 161 -27 395 -29 l267 -2 0 62 c0 61 0 62 -23 54 -13 -5 -69
-12 -124 -16 -96 -7 -100 -6 -105 13 -4 15 -11 19 -27 15 -15 -4 -21 -1 -21
10 0 9 8 18 18 20 13 4 12 5 -5 6 -13 1 -24 -6 -28 -18 -5 -15 -23 -21 -103
-31 -53 -6 -108 -12 -122 -13 -36 -3 -32 26 5 34 17 4 23 7 15 8 -13 1 -13 2
0 11 16 10 -11 7 -119 -11 -58 -9 -71 -6 -71 18 0 8 -14 28 -31 44 -20 18 -28
23 -24 12 4 -10 8 -24 8 -30 0 -7 6 -13 14 -13 15 0 16 -9 4 -28 -6 -10 -13
-3 -24 25 -15 35 -17 36 -23 16 -3 -13 -11 -20 -16 -17 -5 3 -2 14 7 24 35 38
-10 50 -90 25z m-85 -43 c0 -5 -7 -9 -15 -9 -8 0 -12 4 -9 9 3 4 9 8 15 8 5 0
9 -4 9 -8z m163 -47 c-6 -18 8 -20 25 -3 9 9 11 7 8 -9 -3 -14 3 -24 21 -32
14 -7 23 -14 19 -18 -3 -3 -24 6 -46 22 -22 15 -46 25 -55 21 -13 -5 -13 -2 1
19 17 26 37 25 27 0z m-1 -39 c5 3 12 -3 15 -14 3 -13 11 -18 19 -15 8 3 14 0
14 -6 0 -6 -4 -11 -10 -11 -5 0 -9 -5 -7 -11 1 -6 -5 -14 -13 -16 -13 -4 -13
-3 0 6 15 11 8 15 -23 11 -10 -1 -16 4 -15 12 2 8 -5 12 -19 10 -17 -2 -20 1
-16 17 5 20 35 34 41 19 2 -5 8 -5 14 -2z m547 -49 c1 -10 -3 -16 -9 -12 -5 3
-7 12 -4 19 3 7 -2 16 -12 20 -14 5 -14 9 -3 22 12 15 14 14 20 -7 4 -13 7
-32 8 -42z m-774 17 c0 -5 -7 -10 -16 -12 -9 -1 -16 4 -16 11 0 8 7 14 16 12
9 -1 16 -6 16 -11z m45 2 c0 -3 -4 -8 -10 -11 -5 -3 -10 -1 -10 4 0 6 5 11 10
11 6 0 10 -2 10 -4z m100 0 c0 -2 -8 -10 -17 -17 -16 -13 -17 -12 -4 4 13 16
21 21 21 13z m9 -32 c-10 -12 -10 -17 0 -23 9 -6 9 -10 -2 -20 -12 -9 -16 -8
-20 3 -5 13 18 56 30 56 3 0 0 -7 -8 -16z m51 -23 c0 -5 -7 -12 -16 -15 -14
-5 -15 -4 -4 9 14 17 20 19 20 6z m117 -4 c-2 -7 -10 -39 -17 -71 -8 -39 -15
-55 -22 -48 -11 11 -1 72 11 72 4 0 6 14 3 30 -3 23 0 30 13 30 10 0 15 -5 12
-13z m-127 -71 c0 -3 -4 -8 -10 -11 -5 -3 -10 -1 -10 4 0 6 5 11 10 11 6 0 10
-2 10 -4z m350 -42 c0 -2 -11 -4 -25 -4 -14 0 -25 4 -25 9 0 4 11 6 25 3 14
-2 25 -6 25 -8z m275 -34 c-2 -11 2 -20 8 -21 7 0 3 -4 -8 -9 -29 -12 -37 -12
-28 3 8 12 9 17 12 37 0 6 5 10 10 10 6 0 8 -9 6 -20z m-375 -69 c0 -24 -5
-29 -30 -33 -25 -4 -30 -1 -30 15 0 21 26 46 48 47 7 0 12 -12 12 -29z m50
-16 c7 -9 8 -15 2 -15 -5 0 -12 7 -16 15 -3 8 -4 15 -2 15 2 0 9 -7 16 -15z
m-40 -20 c-10 -12 -10 -15 1 -16 8 -1 -2 -5 -21 -9 -20 -5 -39 -5 -44 1 -6 5
3 11 22 15 18 4 35 11 38 15 3 5 8 9 11 9 3 0 0 -7 -7 -15z"/>
<path d="M470 731 c0 -17 18 -21 24 -6 3 9 0 15 -9 15 -8 0 -15 -4 -15 -9z"/>
<path d="M792 710 c0 -14 2 -19 5 -12 2 6 2 18 0 25 -3 6 -5 1 -5 -13z"/>
<path d="M662 692 c-15 -13 -22 -21 -15 -18 6 4 15 2 18 -4 5 -8 11 -8 20 0 8
7 15 7 19 1 4 -5 2 -12 -4 -16 -6 -4 -8 -10 -5 -14 7 -12 -27 -7 -52 7 -13 7
-23 9 -23 5 1 -11 30 -49 30 -39 0 5 6 3 14 -3 8 -7 17 -8 20 -3 6 11 56 4 56
-8 0 -4 -15 -12 -32 -18 -32 -11 -32 -11 -3 -6 17 4 35 7 41 7 6 0 11 10 10
21 -1 13 -7 20 -16 19 -10 -2 -16 6 -18 22 -1 14 3 25 9 25 5 0 7 5 4 10 -4 6
-2 17 4 24 20 24 -47 14 -77 -12z m56 -17 c-3 -3 -9 2 -12 12 -6 14 -5 15 5 6
7 -7 10 -15 7 -18z"/>
<path d="M460 700 c0 -5 5 -10 11 -10 5 0 7 5 4 10 -3 6 -8 10 -11 10 -2 0 -4
-4 -4 -10z"/>
<path d="M495 700 c-4 -6 6 -10 22 -10 22 0 25 2 13 10 -19 12 -27 12 -35 0z"/>
<path d="M815 700 c4 -6 11 -8 16 -5 14 9 11 15 -7 15 -8 0 -12 -5 -9 -10z"/>
<path d="M2250 689 c0 -5 5 -7 10 -4 6 3 10 8 10 11 0 2 -4 4 -10 4 -5 0 -10
-5 -10 -11z"/>
<path d="M1105 680 c-39 -7 -43 -28 -4 -22 16 2 32 9 35 14 8 13 3 15 -31 8z"/>
<path d="M356 664 c-3 -8 -10 -13 -15 -10 -5 3 -8 -5 -7 -18 1 -25 16 -25 16
0 0 8 10 14 23 14 16 0 18 3 8 9 -11 7 -11 9 0 14 10 4 10 6 -2 6 -9 1 -20 -6
-23 -15z"/>
<path d="M431 664 c0 -11 3 -14 6 -6 3 7 2 16 -1 19 -3 4 -6 -2 -5 -13z"/>
<path d="M772 655 c0 -16 2 -22 5 -12 2 9 2 23 0 30 -3 6 -5 -1 -5 -18z"/>
<path d="M2528 663 c7 -3 16 -2 19 1 4 3 -2 6 -13 5 -11 0 -14 -3 -6 -6z"/>
<path d="M2573 663 c9 -2 25 -2 35 0 9 3 1 5 -18 5 -19 0 -27 -2 -17 -5z"/>
<path d="M505 650 c-4 -6 3 -10 14 -10 25 0 27 6 6 13 -8 4 -17 2 -20 -3z"/>
<path d="M1020 656 c0 -9 30 -14 35 -6 4 6 -3 10 -14 10 -12 0 -21 -2 -21 -4z"/>
<path d="M1420 640 c-280 -60 -310 -64 -402 -65 -53 0 -100 -3 -104 -8 -4 -4
-16 1 -27 10 -18 17 -18 17 -6 -10 12 -26 34 -32 107 -30 6 1 12 -4 12 -10 0
-5 8 -3 18 6 20 19 37 23 27 7 -10 -15 5 -12 22 6 22 22 33 2 31 -56 0 -25 -3
-35 -5 -22 -6 33 -23 27 -23 -9 0 -24 4 -30 15 -25 10 4 15 -1 15 -16 0 -12
-3 -19 -6 -15 -11 10 -31 -17 -26 -35 3 -15 15 -18 64 -18 49 0 63 4 77 21 24
30 16 79 -13 80 -20 0 -20 1 3 12 18 8 25 9 28 0 3 -7 35 -9 107 -6 l102 6 20
-34 c18 -31 19 -37 7 -68 -8 -18 -16 -31 -19 -28 -3 3 -1 15 6 27 12 22 5 60
-11 60 -6 0 -7 5 -4 10 4 6 -20 10 -64 10 -69 0 -71 -1 -108 -41 -21 -22 -42
-47 -46 -55 -5 -9 -26 -14 -62 -14 -30 0 -55 -4 -55 -9 0 -5 -9 -7 -20 -4 -22
6 -26 -14 -11 -52 7 -17 8 -17 15 8 5 23 12 27 41 27 24 0 35 -5 35 -15 0 -11
-11 -15 -37 -16 -36 -1 -37 -1 -11 -9 16 -5 58 -8 95 -7 38 0 53 2 36 4 -18 3
-33 9 -33 14 0 5 12 7 28 3 46 -10 53 -14 47 -24 -4 -6 3 -9 16 -7 26 4 39 27
15 27 -8 0 -17 4 -20 9 -4 5 2 7 13 4 14 -4 20 3 26 29 l8 33 7 -30 c3 -16 3
-38 -2 -47 -5 -10 -4 -19 2 -23 6 -4 8 -10 6 -14 -6 -10 2 -11 94 -15 41 -2
89 -6 105 -9 17 -4 78 -9 138 -12 91 -4 107 -3 107 10 0 8 -8 15 -17 15 -30 1
-156 11 -183 15 -14 2 -53 4 -88 4 -46 1 -63 4 -59 14 3 9 39 12 140 10 76 0
137 3 137 8 0 5 9 9 20 9 11 0 20 -7 20 -14 0 -13 4 -13 34 -1 30 13 35 13 40
-1 8 -21 8 -24 -5 -24 -5 0 -7 4 -4 10 4 6 -1 7 -11 3 -14 -5 -14 -7 -1 -14 9
-5 13 -17 10 -28 -3 -12 2 -20 14 -23 22 -6 43 0 43 13 0 6 -4 8 -9 5 -5 -3
-15 2 -22 11 -12 15 -12 16 4 10 10 -4 17 -2 17 6 0 16 -98 152 -109 152 -5 0
-13 4 -18 9 -5 5 -2 6 6 1 9 -5 12 -3 9 6 -5 15 -85 18 -214 8 l-70 -6 -37 69
c-20 37 -33 68 -27 68 5 0 12 -4 15 -10 3 -5 10 -10 15 -10 6 0 2 15 -8 33
-36 63 -35 67 6 67 28 0 33 -3 22 -10 -12 -8 -10 -10 9 -10 16 0 22 4 17 15
-3 10 1 15 12 15 14 0 14 2 3 9 -11 7 -9 10 10 14 18 3 19 4 4 5 -11 0 -58 -8
-105 -18z m-95 -132 c-7 -36 -15 -50 -15 -25 0 13 -6 15 -32 10 -21 -4 -29 -3
-24 5 3 6 2 13 -4 17 -5 3 -10 -3 -10 -14 0 -15 -6 -21 -22 -20 -22 0 -22 1
-3 9 16 7 17 9 3 9 -9 1 -20 6 -24 13 -4 7 -3 8 4 4 7 -4 12 -3 12 3 0 10 31
17 88 20 31 1 32 0 27 -31z m404 -112 c-9 -8 -98 -13 -93 -5 3 5 26 9 51 9 26
0 44 -2 42 -4z m-449 -10 c0 -2 -8 -10 -17 -17 -16 -13 -17 -12 -4 4 13 16 21
21 21 13z m307 -3 c-20 -2 -52 -2 -70 0 -17 2 0 4 38 4 39 0 53 -2 32 -4z m43
-48 c8 -42 1 -65 -20 -65 -15 0 -19 10 -22 50 -3 46 -1 50 17 48 13 -2 22 -13
25 -33z m169 1 c24 -38 26 -46 9 -46 -6 0 -8 3 -5 7 4 3 -3 21 -14 40 -11 18
-18 33 -16 33 3 0 15 -15 26 -34z m-316 4 c-5 -19 -23 -39 -23 -25 0 9 20 45
24 45 2 0 2 -9 -1 -20z m211 1 c3 -5 -5 -8 -18 -7 -13 0 -22 4 -19 9 6 10 31
9 37 -2z m-264 -42 c-15 -28 -2 -39 16 -15 21 30 17 6 -6 -32 -11 -18 -25 -30
-31 -27 -7 5 -6 12 2 21 9 11 9 18 1 26 -14 14 -16 32 -3 24 5 -3 11 1 15 9 3
8 8 15 11 15 3 0 1 -9 -5 -21z m-40 -44 c0 -5 -5 -3 -10 5 -5 8 -10 20 -10 25
0 6 5 3 10 -5 5 -8 10 -19 10 -25z m-193 19 c-3 -3 -12 -4 -19 -1 -8 3 -5 6 6
6 11 1 17 -2 13 -5z"/>
<path d="M1280 510 c-9 -6 -10 -10 -3 -10 6 0 15 5 18 10 8 12 4 12 -15 0z"/>
<path d="M940 633 c-8 -2 -21 -7 -29 -9 -8 -2 -12 -6 -10 -9 3 -2 27 2 54 10
30 8 40 13 25 13 -14 0 -32 -2 -40 -5z"/>
<path d="M450 604 c0 -8 5 -12 10 -9 6 3 10 10 10 16 0 5 -4 9 -10 9 -5 0 -10
-7 -10 -16z"/>
<path d="M322 580 c3 -8 2 -26 -2 -40 -7 -25 -7 -25 52 -24 33 1 62 5 66 10 4
4 2 4 -5 0 -7 -3 -14 2 -18 14 -3 11 -13 20 -21 20 -8 0 -12 -4 -9 -10 14 -22
-21 -8 -44 18 -13 15 -22 20 -19 12z"/>
<path d="M810 570 c0 -5 5 -10 11 -10 5 0 7 5 4 10 -3 6 -8 10 -11 10 -2 0 -4
-4 -4 -10z"/>
<path d="M1 554 c0 -11 3 -14 6 -6 3 7 2 16 -1 19 -3 4 -6 -2 -5 -13z"/>
<path d="M228 562 c-10 -2 -18 -7 -18 -12 0 -4 -10 -6 -22 -3 -23 5 -23 5 -3
-10 14 -11 24 -12 33 -5 7 6 15 8 19 5 8 -9 43 12 43 26 0 8 -4 6 -10 -3 -7
-10 -13 -11 -17 -5 -5 6 -16 9 -25 7z"/>
<path d="M596 551 c-3 -5 -36 -17 -73 -27 -38 -9 -73 -21 -79 -26 -6 -4 -14
-5 -17 -1 -4 3 -7 -1 -7 -11 0 -9 5 -14 10 -11 6 3 10 -1 10 -10 0 -11 -5 -15
-15 -11 -10 4 -15 -1 -15 -14 0 -19 10 -24 39 -21 7 2 10 -2 6 -8 -3 -6 -11
-11 -16 -11 -20 0 -38 -28 -32 -49 3 -11 1 -21 -5 -21 -5 0 -12 -13 -14 -30
l-5 -30 94 0 c51 0 93 4 93 9 0 5 3 16 6 25 5 13 -2 16 -37 17 l-44 2 40 6
c39 6 40 7 45 53 6 44 4 47 -20 51 -25 4 -25 4 3 6 25 1 27 4 27 42 0 22 5 49
10 60 10 19 6 28 -4 10z m-126 -71 c0 -11 -4 -20 -9 -20 -11 0 -22 26 -14 34
12 12 23 5 23 -14z m60 -49 c0 -9 -59 -1 -64 8 -3 4 11 5 30 3 19 -2 34 -7 34
-11z m-80 -106 c0 -8 -4 -15 -9 -15 -5 0 -11 7 -15 15 -3 9 0 15 9 15 8 0 15
-7 15 -15z"/>
<path d="M611 428 c-7 -67 -15 -131 -18 -142 -4 -13 -1 -16 7 -11 9 5 11 4 6
-3 -4 -7 -28 -12 -54 -12 -26 0 -52 -4 -59 -8 -6 -4 23 -6 65 -3 42 2 81 8 85
15 6 8 10 8 14 -2 2 -6 10 -9 16 -5 6 4 28 6 48 4 34 -2 37 0 43 31 4 18 9 81
13 141 l6 107 -44 0 c-24 0 -60 3 -80 6 l-35 6 -13 -124z m59 102 c12 -8 11
-10 -7 -10 -13 0 -23 5 -23 10 0 13 11 13 30 0z m10 -40 c0 -5 -12 -10 -27 -9
l-28 1 25 8 c14 4 26 8 28 9 1 1 2 -3 2 -9z m20 -152 c0 -24 -4 -38 -8 -32 -4
7 -16 14 -27 17 -18 4 -18 5 3 6 15 1 22 7 22 20 0 15 -8 21 -32 24 -32 4 -32
4 5 5 l37 2 0 -42z m-63 -14 c-3 -3 -12 -4 -19 -1 -8 3 -5 6 6 6 11 1 17 -2
13 -5z m116 -1 c-7 -2 -21 -2 -30 0 -10 3 -4 5 12 5 17 0 24 -2 18 -5z"/>
<path d="M800 515 c0 -8 5 -15 10 -15 6 0 10 7 10 15 0 8 -4 15 -10 15 -5 0
-10 -7 -10 -15z"/>
<path d="M830 510 c0 -11 7 -20 15 -20 8 0 15 -4 15 -10 0 -5 -13 -10 -30 -10
-20 0 -30 -5 -30 -15 0 -12 14 -15 70 -15 72 0 93 13 40 25 -33 7 -35 12 -19
35 8 11 12 12 16 3 2 -7 9 -13 14 -13 6 0 7 5 4 10 -3 6 2 11 12 11 22 2 -53
18 -84 18 -17 1 -23 -5 -23 -19z"/>
<path d="M1016 503 c-42 -4 -47 -7 -43 -24 3 -10 1 -17 -4 -13 -5 3 -9 -2 -9
-10 0 -9 7 -16 15 -16 8 0 24 -5 34 -12 15 -9 23 -9 35 1 8 7 15 16 14 19 -3
28 5 51 20 55 19 5 10 5 -62 0z"/>
<path d="M300 404 c0 -23 -3 -49 -6 -57 -3 -9 3 -16 15 -20 17 -4 21 0 21 22
0 14 4 40 9 58 8 28 7 31 -15 36 -22 4 -24 1 -24 -39z"/>
<path d="M0 331 l0 -110 108 6 c59 3 109 7 111 9 2 2 -27 5 -65 5 -38 1 -61 3
-52 6 15 4 16 8 7 25 -13 25 -9 29 38 38 l38 8 -42 1 c-25 1 -43 -4 -46 -11
-4 -10 -7 -10 -18 -1 -20 20 -6 25 80 26 67 0 81 3 81 16 0 9 3 33 6 54 l7 37
-127 0 -126 0 0 -109z m196 43 c-4 -13 -13 -24 -21 -24 -19 0 -19 2 2 48 12
28 17 33 20 19 3 -10 2 -29 -1 -43z m-139 -119 c0 -8 -6 -15 -13 -15 -8 0 -11
6 -8 15 4 8 9 15 13 15 4 0 8 -7 8 -15z"/>
<path d="M1230 420 c0 -11 2 -20 5 -20 2 0 9 9 15 20 9 16 8 20 -5 20 -8 0
-15 -9 -15 -20z"/>
<path d="M790 401 c0 -17 5 -31 10 -31 6 0 10 11 10 24 0 14 -4 28 -10 31 -6
4 -10 -7 -10 -24z"/>
<path d="M820 395 c0 -16 6 -25 15 -25 8 0 15 5 15 10 0 6 -6 10 -12 10 -9 0
-8 3 2 10 10 6 19 2 31 -17 l17 -26 5 24 c3 19 5 17 6 -8 1 -26 5 -33 21 -33
17 0 20 7 20 40 l0 40 -60 0 c-57 0 -60 -1 -60 -25z"/>
<path d="M957 398 c-4 -13 -7 -52 -7 -87 0 -53 2 -62 16 -57 9 3 21 6 27 7 7
0 3 4 -8 9 l-20 9 20 1 c11 1 30 1 43 0 17 -1 22 4 22 20 0 18 -4 21 -25 18
-14 -3 -25 -1 -25 4 0 5 -4 6 -10 3 -5 -3 -10 1 -10 9 0 10 9 16 23 17 12 0
17 3 10 5 -15 6 17 40 44 47 10 3 2 5 -17 6 -19 1 -45 4 -56 7 -16 4 -23 0
-27 -18z"/>
<path d="M1037 370 c-3 -11 -2 -20 3 -20 12 0 21 28 11 35 -5 2 -11 -4 -14
-15z"/>
<path d="M787 323 c-4 -3 -7 -20 -7 -36 0 -28 2 -29 31 -23 17 3 40 6 50 6 10
0 19 9 22 23 l4 22 2 -22 c1 -17 7 -23 25 -23 22 0 25 7 17 53 -1 9 -135 10
-144 0z"/>
<path d="M277 301 c-4 -17 -3 -21 5 -13 5 5 8 16 6 23 -3 8 -7 3 -11 -10z"/>
<path d="M1914 286 c-3 -9 -11 -13 -17 -9 -6 3 -7 1 -3 -6 4 -6 12 -8 18 -5 6
4 14 0 19 -7 6 -11 9 -8 9 8 0 27 -18 40 -26 19z"/>
<path d="M1983 250 c1 -16 5 -30 10 -30 11 0 9 48 -3 55 -5 3 -8 -7 -7 -25z"/>
<path d="M265 230 c-3 -5 -1 -10 4 -10 6 0 11 5 11 10 0 6 -2 10 -4 10 -3 0
-8 -4 -11 -10z"/>
<path d="M1325 230 c-3 -5 -1 -10 4 -10 6 0 11 5 11 10 0 6 -2 10 -4 10 -3 0
-8 -4 -11 -10z"/>
<path d="M1778 233 c7 -3 16 -2 19 1 4 3 -2 6 -13 5 -11 0 -14 -3 -6 -6z"/>
<path d="M2037 233 c-13 -12 -7 -43 8 -43 8 0 15 4 15 9 0 5 3 16 6 25 6 16
-16 23 -29 9z"/>
<path d="M1936 215 c-10 -28 -7 -44 12 -54 16 -8 18 -6 18 19 -1 36 -20 59
-30 35z m24 -15 c0 -5 -4 -10 -10 -10 -5 0 -10 5 -10 10 0 6 5 10 10 10 6 0
10 -4 10 -10z"/>
<path d="M2247 207 c-4 -10 3 -12 25 -9 31 5 30 14 -1 19 -11 1 -21 -3 -24
-10z"/>
<path d="M2311 203 c-8 -16 -4 -18 46 -15 49 4 63 12 30 18 -7 2 -24 5 -39 9
-20 4 -30 0 -37 -12z"/>
<path d="M35 181 l-30 -6 -3 -88 -3 -88 223 5 c238 5 337 12 352 27 6 5 46 9
90 9 51 1 90 6 106 15 14 8 41 15 60 16 l35 1 -30 7 -30 7 40 7 c22 4 47 6 55
4 21 -3 123 13 118 19 -3 2 -56 7 -119 10 -63 4 -143 10 -179 15 -56 7 -51 7
35 4 96 -4 98 -4 55 9 -50 14 -418 29 -385 16 21 -9 -28 -14 -112 -10 -41 1
-42 1 -53 -40 -6 -23 -14 -39 -17 -36 -3 3 -12 -2 -19 -12 -12 -15 -13 -11
-14 28 -1 34 -3 40 -10 25 -5 -11 -9 -17 -9 -13 -1 4 -14 3 -31 -2 -25 -7 -30
-6 -30 8 -1 13 -7 9 -25 -13 -27 -33 -30 -25 -16 40 5 27 11 31 51 36 43 6 42
6 -15 6 -33 0 -73 -2 -90 -6z m565 -41 c-8 -5 -31 -9 -50 -9 l-35 1 30 8 c17
4 39 8 50 9 16 1 17 -1 5 -9z m-230 -20 c0 -5 -8 -10 -17 -10 -15 0 -16 2 -3
10 19 12 20 12 20 0z m90 0 c0 -5 -19 -9 -42 -9 l-43 2 40 7 c22 4 41 8 43 9
1 0 2 -3 2 -9z m337 -17 c-20 -2 -35 -8 -32 -13 3 -5 1 -11 -5 -15 -5 -3 -10
-2 -10 3 0 6 -15 9 -32 8 -38 -3 -58 2 -58 15 0 5 39 8 88 7 48 -1 70 -3 49
-5z m-299 -10 c-10 -2 -26 -2 -35 0 -10 3 -2 5 17 5 19 0 27 -2 18 -5z m69 1
c-3 -3 -12 -4 -19 -1 -8 3 -5 6 6 6 11 1 17 -2 13 -5z"/>
<path d="M270 182 c0 -5 28 -9 63 -9 47 0 55 1 32 7 -42 11 -95 12 -95 2z"/>
<path d="M868 183 c7 -3 16 -2 19 1 4 3 -2 6 -13 5 -11 0 -14 -3 -6 -6z"/>
<path d="M973 173 c9 -2 25 -2 35 0 9 3 1 5 -18 5 -19 0 -27 -2 -17 -5z"/>
<path d="M1765 129 c-218 -63 -203 -56 -197 -84 2 -14 7 -25 11 -25 12 0 205
70 210 77 4 3 -5 3 -19 -1 -16 -4 -13 0 9 10 19 8 43 13 53 11 11 -3 16 -1 11
6 -4 7 0 8 11 4 10 -4 15 -3 11 3 -3 6 1 10 9 10 9 0 16 5 16 10 0 14 -10 12
-125 -21z"/>
<path d="M1100 130 c41 -4 54 -8 35 -10 -27 -3 8 -8 192 -26 36 -3 69 -1 80 5
13 8 4 9 -35 4 -31 -3 -62 -1 -75 5 -25 13 -91 22 -192 26 l-70 3 65 -7z"/>
<path d="M1328 113 c7 -3 16 -2 19 1 4 3 -2 6 -13 5 -11 0 -14 -3 -6 -6z"/>
<path d="M1926 92 c-3 -5 8 -6 25 -4 16 2 29 6 29 8 0 8 -49 4 -54 -4z"/>
<path d="M2025 90 c-3 -6 1 -7 9 -4 18 7 21 14 7 14 -6 0 -13 -4 -16 -10z"/>
<path d="M970 83 c-36 -2 -69 -8 -74 -13 -5 -5 15 -7 45 -5 30 1 66 3 82 4 15
0 27 6 27 11 0 6 -3 9 -7 8 -5 -1 -37 -3 -73 -5z"/>
<path d="M1235 59 l-30 -7 33 -1 c30 -1 46 -19 20 -23 -36 -4 -44 -3 -50 6 -4
6 -10 7 -14 3 -13 -13 12 -28 55 -34 39 -5 41 -4 41 20 0 19 6 27 23 29 16 3
13 5 -13 9 -19 2 -48 1 -65 -2z"/>
<path d="M1503 53 c-7 -2 -13 -13 -13 -24 0 -14 7 -19 30 -19 25 0 30 4 30 25
0 25 -16 31 -47 18z"/>
<path d="M1387 34 c-12 -12 22 -34 52 -34 28 0 46 18 21 21 -5 1 -14 2 -19 3
-5 0 -13 4 -17 9 -9 9 -28 9 -37 1z"/>
<path d="M1301 13 c0 -10 3 -13 5 -6 4 8 13 9 29 3 14 -5 27 -6 29 -1 8 13 -5
21 -36 21 -20 0 -28 -5 -27 -17z"/>
<path d="M1080 10 c0 -5 5 -10 10 -10 6 0 10 5 10 10 0 6 -4 10 -10 10 -5 0
-10 -4 -10 -10z"/>
</g>
</svg>
